HIERARCHY
ROOT Hips
{
	OFFSET 0.000000 0.000000 0.000000
	CHANNELS 6 Xposition Yposition Zposition Zrotation Yrotation Xrotation 
	JOINT LHipJoint
	{
		OFFSET 0.000000 0.000000 0.000000
		CHANNELS 3 Zrotation Yrotation Xrotation
		JOINT LeftUpLeg
		{
			OFFSET 1.363060 -1.794630 0.839290
			CHANNELS 3 Zrotation Yrotation Xrotation
			JOINT LeftLeg
			{
				OFFSET 2.448110 -6.726130 0.000000
				CHANNELS 3 Zrotation Yrotation Xrotation
				JOINT LeftFoot
				{
					OFFSET 2.562200 -7.039590 0.000000
					CHANNELS 3 Zrotation Yrotation Xrotation
					JOINT LeftToeBase
					{
						OFFSET 0.157640 -0.433110 2.322550
						CHANNELS 3 Zrotation Yrotation Xrotation
						End Site
						{
							OFFSET 0.000000 0.000000 0.000000
						}
					}
				}
			}
		}
	}
	JOINT RHipJoint
	{
		OFFSET 0.000000 0.000000 0.000000
		CHANNELS 3 Zrotation Yrotation Xrotation
		JOINT RightUpLeg
		{
			OFFSET -1.305520 -1.794630 0.839290
			CHANNELS 3 Zrotation Yrotation Xrotation
			JOINT RightLeg
			{
				OFFSET -2.542530 -6.985550 0.000000
				CHANNELS 3 Zrotation Yrotation Xrotation
				JOINT RightFoot
				{
					OFFSET -2.568260 -7.056230 0.000000
					CHANNELS 3 Zrotation Yrotation Xrotation
					JOINT RightToeBase
					{
						OFFSET -0.164730 -0.452590 2.363150
						CHANNELS 3 Zrotation Yrotation Xrotation
						End Site
						{
							OFFSET 0.000000 0.000000 0.000000
						}
					}
				}
			}
		}
	}
}
MOTION
Frames: 19
Frame Time: 0.008333
-13.245005 16.756941 -1.607852 105.763499 88.873100 127.838817 -11.255433 1.855379 -2.916038 -6.807983 1.293149 -4.153660 -1.541544 1.306268 24.869144 0.273967 0.151091 -1.611059 0.059201 -0.000000 -72.386100 7.659345 0.590165 1.681923 4.730844 9.847130 -43.561001 2.385131 -0.393557 11.501382 0.396401 1.481303 10.190477 -0.195600 0.000000 -35.986100
-13.083523 16.754796 -1.591189 159.855401 89.287903 -177.946588 -11.113129 1.745935 -2.992732 -5.863819 1.541667 -4.707882 -1.365939 1.404655 26.443471 0.254282 -0.078509 -0.384273 0.038700 -0.000000 -74.978599 7.863528 0.509411 1.802336 5.123859 10.710203 -44.115533 2.301580 -0.642600 13.548139 0.232952 0.849891 9.493963 -0.381000 0.000000 -33.454600
-12.924461 16.757056 -1.573122 -163.561624 89.752470 -141.245644 -11.373849 1.931157 -3.014514 -5.238732 2.013393 -5.472079 -1.355911 1.676271 27.980431 0.273299 -0.262105 1.015168 -0.005700 0.000000 -77.165800 7.745810 0.595681 1.740498 5.426448 11.519358 -44.470258 2.164123 -0.749627 15.653047 0.131959 0.270472 8.602101 -0.579100 -0.000000 -31.449600
-12.768104 16.763200 -1.552730 -151.831723 89.574564 -129.452773 -11.706765 1.946636 -3.062427 -4.561213 2.427905 -6.272098 -1.207296 1.856993 29.702765 0.290263 -0.538351 2.608560 -0.080600 0.000000 -78.760500 7.474092 0.525595 1.713774 5.697944 12.153339 -44.713102 2.063059 -0.863438 17.580347 -0.003039 -0.390449 7.441755 -0.770400 0.000000 -29.965299
-12.614603 16.772480 -1.529132 -148.568738 89.268522 -126.155079 -11.949545 1.924287 -3.121548 -3.883625 2.805763 -7.122794 -1.039570 2.020379 31.548386 0.318548 -0.846595 4.333125 -0.187600 -0.000000 -79.597600 7.285612 0.466540 1.680042 6.016314 12.669742 -44.819938 1.980485 -0.968408 19.318044 -0.162420 -1.086379 6.115841 -0.935300 0.000000 -28.939300
-12.463984 16.784133 -1.501836 -148.900226 88.921469 -126.474431 -12.131246 1.891481 -3.179065 -3.252125 3.130379 -8.034046 -0.871383 2.178335 33.492726 0.364501 -1.139203 6.134736 -0.321600 0.000000 -79.552600 7.157818 0.432108 1.626797 6.356573 13.057398 -44.783376 1.912640 -1.055061 20.851325 -0.332098 -1.773890 4.700904 -1.060700 -0.000001 -28.274300
-12.316128 16.797354 -1.470819 -151.138335 88.542730 -128.718341 -12.265291 1.851236 -3.227338 -2.682027 3.381645 -9.009224 -0.706367 2.329950 35.523309 0.430031 -1.369061 7.947442 -0.468499 -0.000000 -78.548800 7.077229 0.417956 1.554821 6.704826 13.309167 -44.612160 1.859920 -1.122945 22.168067 -0.503318 -2.424845 3.265117 -1.141700 0.000000 -27.854100
-12.170865 16.811420 -1.436052 -154.578461 88.128788 -132.178589 -12.354554 1.803927 -3.261511 -2.193735 3.537227 -10.042592 -0.546419 2.472467 37.621604 0.514908 -1.473739 9.694307 -0.601200 -0.000000 -76.552700 7.040391 0.420275 1.465943 7.042596 13.416186 -44.328002 1.821171 -1.175696 23.277473 -0.667916 -3.010883 1.862542 -1.177300 0.000001 -27.567200
-12.027979 16.825730 -1.398017 -158.623477 87.669097 -136.253626 -12.408194 1.748099 -3.279218 -1.790151 3.592630 -11.132385 -0.391998 2.604254 39.770664 0.616911 -1.396317 11.298967 -0.686500 0.000000 -73.611300 7.037916 0.432321 1.364112 7.361162 13.384602 -43.954673 1.795235 -1.216295 24.193288 -0.820178 -3.520098 0.538869 -1.174200 -0.000000 -27.309400
-11.887202 16.839879 -1.357407 -162.810222 87.157882 -140.476854 -12.436036 1.683118 -3.280152 -1.471482 3.552634 -12.274012 -0.243239 2.725049 41.948396 0.733316 -1.083778 12.692081 -0.688500 0.000000 -69.850899 7.059860 0.448699 1.253185 7.654004 13.228830 -43.516891 1.779850 -1.247492 24.938914 -0.956485 -3.949706 -0.675034 -1.142200 -0.000000 -27.003600
-11.748316 16.853678 -1.315104 -166.776192 86.596876 -144.482982 -12.448208 1.609390 -3.265472 -1.231649 3.432032 -13.461201 -0.100277 2.836039 44.128594 0.861874 -0.496841 13.820608 -0.577000 -0.000000 -65.481800 7.096002 0.465562 1.137411 7.918961 12.972718 -43.036606 1.772091 -1.271031 25.541522 -1.075963 -4.307681 -1.762740 -1.091900 -0.000001 -26.597900
-11.611150 16.867125 -1.271992 -170.307480 85.997126 -148.055581 -12.451269 1.527459 -3.239202 -1.063589 3.250382 -14.682281 0.036503 2.939036 46.280282 1.001208 0.385202 14.649857 -0.334000 0.000000 -60.770300 7.138895 0.481407 1.019874 8.155412 12.646275 -42.531236 1.768472 -1.288315 26.029593 -1.180176 -4.609169 -2.721717 -1.032600 -0.000000 -26.088900
-11.475645 16.880400 -1.229018 -173.282969 85.376029 -151.072414 -12.450627 1.438299 -3.204844 -0.955044 3.030350 -15.925463 0.166475 3.036002 48.372347 1.150690 1.556820 15.164314 0.041000 -0.000000 -56.002501 7.181816 0.495090 0.904777 8.368146 12.284451 -42.012430 1.766098 -1.299752 26.427903 -1.272906 -4.875716 -3.561827 -0.971500 0.000000 -25.485200
-11.341745 16.893854 -1.186956 -175.697777 84.754270 -153.527657 -12.448016 1.342031 -3.167931 -0.895410 2.793719 -17.174528 0.288819 3.128192 50.373783 1.309692 2.987136 15.362750 0.530100 -0.000000 -51.429900 7.221034 0.506260 0.794865 8.560645 11.920666 -41.485747 1.762442 -1.305868 26.756173 -1.358877 -5.129383 -4.300145 -0.912800 0.000000 -24.829500
-11.209516 16.907866 -1.146373 -177.599631 84.152957 -155.469986 -12.444101 1.239029 -3.133353 -0.874415 2.560559 -18.413546 0.402441 3.216341 52.257301 1.476781 4.620400 15.253583 1.098699 0.000000 -47.231800 7.253782 0.514333 0.692838 8.738051 11.585248 -40.950755 1.755976 -1.306821 27.028086 -1.442874 -5.389772 -4.959149 -0.857900 0.000000 -24.164499
-11.078991 16.922861 -1.107589 -179.065648 83.590255 -156.977359 -12.438689 1.129879 -3.105260 -0.883370 2.347390 -19.628621 0.506075 3.300660 54.000520 1.649029 6.381194 14.850842 1.699800 0.000000 -43.500000 7.278445 0.518604 0.600819 8.904412 11.301689 -40.402759 1.746087 -1.302504 27.250113 -1.528876 -5.671291 -5.561571 -0.806501 0.000000 -23.526300
-10.950261 16.939186 -1.070700 179.814958 83.080740 -158.141042 -12.430882 1.015565 -3.087311 -0.916899 2.166381 -20.806673 0.598331 3.380990 55.584936 1.821955 8.183307 14.174668 2.280900 0.000001 -40.251900 7.294616 0.518712 0.519480 9.062212 11.084664 -39.833532 1.733034 -1.292735 27.421860 -1.619169 -5.980400 -6.126098 -0.757101 -0.000000 -22.948200
-10.823363 16.957140 -1.035531 178.950579 82.633652 -159.054194 -12.419329 0.897759 -3.081426 -0.972687 2.023833 -21.937848 0.677818 3.456673 56.996213 1.989657 9.937383 13.251436 2.790800 0.000000 -37.454301 7.303102 0.514463 0.448724 9.212617 10.939421 -39.234326 1.717701 -1.277348 27.538349 -1.714202 -6.315863 -6.665309 -0.707500 -0.000000 -22.448600
-10.698340 16.976819 -1.001786 178.256337 82.252382 -159.803918 -12.402419 0.778599 -3.087695 -1.050989 1.920077 -23.014962 0.743273 3.526585 58.224028 2.145572 11.560818 12.115047 3.187200 -0.000000 -35.051500 7.305822 0.505941 0.387558 9.354866 10.861595 -38.596002 1.701441 -1.256261 27.591042 -1.812542 -6.669219 -7.184650 -0.655900 0.000000 -22.032701
